<svg width="24" height="24" viewBox="0 0 24 24" fill="none" xmlns="http://www.w3.org/2000/svg">
<circle cx="12" cy="12" r="12" fill="#1B4DEA"/>
<path d="M11.9998 10C12.5303 10 13.039 10.2107 13.4141 10.5858C13.7891 10.9609 13.9998 11.4696 13.9998 12C13.9998 12.5304 13.7891 13.0391 13.4141 13.4142C13.039 13.7893 12.5303 14 11.9998 14C11.4694 14 10.9607 13.7893 10.5856 13.4142C10.2106 13.0391 9.99984 12.5304 9.99984 12C9.99984 11.4696 10.2106 10.9609 10.5856 10.5858C10.9607 10.2107 11.4694 10 11.9998 10ZM11.9998 7C15.3332 7 18.1798 9.07333 19.3332 12C18.1798 14.9267 15.3332 17 11.9998 17C8.6665 17 5.81984 14.9267 4.6665 12C5.81984 9.07333 8.6665 7 11.9998 7ZM6.11984 12C6.65867 13.1002 7.49537 14.0272 8.53482 14.6755C9.57427 15.3238 10.7748 15.6675 11.9998 15.6675C13.2249 15.6675 14.4254 15.3238 15.4649 14.6755C16.5043 14.0272 17.341 13.1002 17.8798 12C17.341 10.8998 16.5043 9.97283 15.4649 9.3245C14.4254 8.67616 13.2249 8.33245 11.9998 8.33245C10.7748 8.33245 9.57427 8.67616 8.53482 9.3245C7.49537 9.97283 6.65867 10.8998 6.11984 12Z" fill="white"/>
</svg>
