<svg width="24" height="24" viewBox="0 0 24 24" fill="none" xmlns="http://www.w3.org/2000/svg">
<circle cx="12" cy="12" r="12" fill="#1BB6EA"/>
<path d="M12 6H7.33333C6.97971 6 6.64057 6.14048 6.39052 6.39052C6.14048 6.64057 6 6.97971 6 7.33333V16.6667C6 17.0203 6.14048 17.3594 6.39052 17.6095C6.64057 17.8595 6.97971 18 7.33333 18H16.6667C17.0203 18 17.3594 17.8595 17.6095 17.6095C17.8595 17.3594 18 17.0203 18 16.6667V12" stroke="white" stroke-width="1.5" stroke-linecap="round" stroke-linejoin="round"/>
<path d="M16.2499 5.75C16.5151 5.48478 16.8748 5.33578 17.2499 5.33578C17.625 5.33578 17.9847 5.48478 18.2499 5.75C18.5151 6.01521 18.6641 6.37493 18.6641 6.75C18.6641 7.12507 18.5151 7.48478 18.2499 7.75L12.2412 13.7593C12.0829 13.9175 11.8874 14.0333 11.6726 14.096L9.75723 14.656C9.69987 14.6727 9.63906 14.6737 9.58117 14.6589C9.52329 14.6441 9.47045 14.614 9.4282 14.5717C9.38594 14.5294 9.35583 14.4766 9.341 14.4187C9.32617 14.3608 9.32717 14.3 9.3439 14.2427L9.9039 12.3273C9.96692 12.1127 10.0829 11.9174 10.2412 11.7593L16.2499 5.75Z" stroke="white" stroke-width="1.5" stroke-linecap="round" stroke-linejoin="round"/>
</svg>
