<svg width="24" height="24" viewBox="0 0 24 24" fill="none" xmlns="http://www.w3.org/2000/svg">
<circle cx="12" cy="12" r="12" fill="#E61B1B"/>
<path d="M7.99984 18.6667C7.63317 18.6667 7.31939 18.5362 7.0585 18.2753C6.79761 18.0144 6.66695 17.7004 6.6665 17.3333V10.6667C6.6665 10.3 6.79717 9.98621 7.0585 9.72532C7.31984 9.46443 7.63362 9.33377 7.99984 9.33332H8.6665V7.99999C8.6665 7.07777 8.99162 6.29177 9.64184 5.64199C10.2921 4.99221 11.0781 4.6671 11.9998 4.66666C12.9216 4.66621 13.7078 4.99132 14.3585 5.64199C15.0092 6.29266 15.3341 7.07866 15.3332 7.99999V9.33332H15.9998C16.3665 9.33332 16.6805 9.46399 16.9418 9.72532C17.2032 9.98666 17.3336 10.3004 17.3332 10.6667V17.3333C17.3332 17.7 17.2027 18.014 16.9418 18.2753C16.6809 18.5367 16.3669 18.6671 15.9998 18.6667H7.99984ZM7.99984 17.3333H15.9998V10.6667H7.99984V17.3333ZM11.9998 15.3333C12.3665 15.3333 12.6805 15.2029 12.9418 14.942C13.2032 14.6811 13.3336 14.3671 13.3332 14C13.3327 13.6329 13.2023 13.3191 12.9418 13.0587C12.6814 12.7982 12.3674 12.6675 11.9998 12.6667C11.6323 12.6658 11.3185 12.7964 11.0585 13.0587C10.7985 13.3209 10.6678 13.6347 10.6665 14C10.6652 14.3653 10.7958 14.6793 11.0585 14.942C11.3212 15.2047 11.6349 15.3351 11.9998 15.3333ZM9.99984 9.33332H13.9998V7.99999C13.9998 7.44443 13.8054 6.97221 13.4165 6.58332C13.0276 6.19443 12.5554 5.99999 11.9998 5.99999C11.4443 5.99999 10.9721 6.19443 10.5832 6.58332C10.1943 6.97221 9.99984 7.44443 9.99984 7.99999V9.33332Z" fill="white"/>
</svg>
