<svg width="18" height="18" viewBox="0 0 18 18" fill="none" xmlns="http://www.w3.org/2000/svg">
<g id="clarity:eye-hide-solid" clip-path="url(#clip0_19_6595)">
<path id="Vector" d="M9.185 5.58496C8.78035 5.58554 8.37906 5.65835 8 5.79996L12.4 10.2C12.5434 9.81618 12.6162 9.40965 12.615 8.99996C12.611 8.09287 12.2479 7.22428 11.6051 6.58428C10.9623 5.94427 10.0921 5.58495 9.185 5.58496Z" fill="#464661"/>
<path id="Vector_2" d="M17.145 8.76501C15.46 5.65001 12.505 3.76501 9.23499 3.76501C8.34465 3.76694 7.46028 3.91039 6.61499 4.19001L7.41999 5.00001C8.01294 4.84688 8.6226 4.76794 9.23499 4.76501C12.05 4.76501 14.61 6.33501 16.135 8.98001C15.5751 9.96096 14.8335 10.8264 13.95 11.53L14.66 12.24C15.6833 11.415 16.533 10.3953 17.16 9.24001L17.29 9.00001L17.145 8.76501Z" fill="#464661"/>
<path id="Vector_3" d="M2.43494 2.89002L4.66494 5.12002C3.25511 6.02723 2.10302 7.28264 1.31994 8.76502L1.18994 9.00002L1.31994 9.24002C3.00494 12.355 5.95994 14.24 9.22994 14.24C10.5063 14.2403 11.7662 13.9514 12.9149 13.395L15.4149 15.895L16.2899 15.145L3.28994 2.14502L2.43494 2.89002ZM6.58494 7.04002C6.11716 7.69972 5.8979 8.50367 5.966 9.30951C6.03409 10.1154 6.38515 10.8711 6.957 11.443C7.52884 12.0148 8.2846 12.3659 9.09045 12.434C9.89629 12.5021 10.7002 12.2828 11.3599 11.815L12.1599 12.615C11.2339 13.011 10.2371 13.2151 9.22994 13.215C6.41494 13.215 3.85494 11.645 2.32994 9.00002C3.06198 7.70427 4.11595 6.6193 5.38994 5.85002L6.58494 7.04002Z" fill="#464661"/>
</g>
<defs>
<clipPath id="clip0_19_6595">
<rect width="18" height="18" fill="white"/>
</clipPath>
</defs>
</svg>
