<svg width="18" height="18" viewBox="0 0 18 18" fill="none" xmlns="http://www.w3.org/2000/svg">
<g id="clarity:eye-show-solid" clip-path="url(#clip0_10_136)">
<path id="Vector" d="M16.8101 8.765C15.1251 5.65 12.1701 3.765 8.90011 3.765C5.63011 3.765 2.67011 5.65 1.00011 8.765L0.860107 9L0.990107 9.24C2.67511 12.355 5.63011 14.24 8.90011 14.24C12.1701 14.24 15.1301 12.38 16.8101 9.24L16.9401 9L16.8101 8.765ZM8.90011 13.215C6.08511 13.215 3.50011 11.645 2.00011 9C3.50011 6.355 6.08511 4.785 8.90011 4.785C11.7151 4.785 14.2701 6.36 15.7951 9C14.2701 11.645 11.7101 13.215 8.90011 13.215Z" fill="#464661"/>
<path id="Vector_2" d="M9.04499 12.445C10.9393 12.445 12.475 10.9093 12.475 9.015C12.475 7.12066 10.9393 5.585 9.04499 5.585C7.15065 5.585 5.61499 7.12066 5.61499 9.015C5.61499 10.9093 7.15065 12.445 9.04499 12.445Z" fill="#464661"/>
</g>
<defs>
<clipPath id="clip0_10_136">
<rect width="18" height="18" fill="white"/>
</clipPath>
</defs>
</svg>
