<svg width="24" height="24" viewBox="0 0 24 24" fill="none" xmlns="http://www.w3.org/2000/svg">
<g id="fluent:data-pie-24-regular">
<path id="Vector" d="M12.728 2.21601C12.7999 2.14609 12.8851 2.09131 12.9785 2.0549C13.0719 2.01848 13.1717 2.00118 13.272 2.00401C15.5638 2.07327 17.7428 3.01464 19.364 4.63594C20.9853 6.25723 21.9267 8.43619 21.996 10.728C21.9989 10.8283 21.9817 10.9282 21.9453 11.0218C21.909 11.1153 21.8542 11.2006 21.7842 11.2726C21.7143 11.3446 21.6306 11.4018 21.5382 11.4409C21.4457 11.4799 21.3463 11.5 21.246 11.5H13.25C13.0511 11.5 12.8603 11.421 12.7196 11.2803C12.579 11.1397 12.5 10.9489 12.5 10.75V2.75401C12.5 2.65364 12.5203 2.5543 12.5594 2.46189C12.5986 2.36948 12.6559 2.28586 12.728 2.21601ZM14 3.56601V10H20.434C20.2143 8.37089 19.4658 6.85897 18.3034 5.69658C17.141 4.5342 15.6291 3.78566 14 3.56601ZM11 4.76501C11 4.66087 10.9783 4.55787 10.9363 4.46257C10.8943 4.36727 10.8329 4.28177 10.7561 4.2115C10.6792 4.14122 10.5886 4.08773 10.4899 4.05442C10.3912 4.0211 10.2867 4.0087 10.183 4.01801C8.4806 4.1734 6.85768 4.81041 5.50413 5.85451C4.15057 6.8986 3.12236 8.30659 2.53981 9.91372C1.95726 11.5209 1.84447 13.2607 2.21463 14.9296C2.58478 16.5985 3.42258 18.1274 4.62999 19.3376C5.8374 20.5477 7.36448 21.3889 9.03255 21.7628C10.7006 22.1367 12.4407 22.0278 14.0491 21.4489C15.6575 20.87 17.0678 19.8449 18.115 18.4937C19.1621 17.1425 19.8028 15.521 19.962 13.819C19.9716 13.7151 19.9594 13.6104 19.9262 13.5115C19.893 13.4126 19.8396 13.3217 19.7693 13.2446C19.699 13.1675 19.6134 13.106 19.5179 13.0638C19.4225 13.0217 19.3193 13 19.215 13H13.25C12.6532 13 12.0809 12.763 11.659 12.341C11.237 11.919 11 11.3467 11 10.75V4.76501ZM3.49998 12.98C3.49962 11.251 4.09665 9.57502 5.19002 8.23565C6.28338 6.89628 7.80593 5.9758 9.49998 5.63001V10.749C9.49998 11.7436 9.89507 12.6974 10.5983 13.4007C11.3016 14.1039 12.2554 14.499 13.25 14.499H18.346C17.9714 16.3189 16.9346 17.935 15.4364 19.0341C13.9383 20.1332 12.0855 20.6371 10.2371 20.4481C8.38865 20.2591 6.67617 19.3907 5.43148 18.0111C4.18679 16.6315 3.4985 14.8391 3.49998 12.981" fill="white"/>
</g>
</svg>
