<svg width="24" height="24" viewBox="0 0 24 24" fill="none" xmlns="http://www.w3.org/2000/svg">
<g id="fluent:note-24-regular">
<path id="Vector" d="M17.75 3C18.612 3 19.4386 3.34241 20.0481 3.9519C20.6576 4.5614 21 5.38805 21 6.25V13.129C20.9997 13.7254 20.7627 14.2973 20.341 14.719L14.72 20.341C14.5111 20.5499 14.263 20.7157 13.99 20.8287C13.7171 20.9418 13.4245 21 13.129 21H6.25C5.38805 21 4.5614 20.6576 3.9519 20.0481C3.34241 19.4386 3 18.612 3 17.75V6.25C3 5.38805 3.34241 4.5614 3.9519 3.9519C4.5614 3.34241 5.38805 3 6.25 3H17.75ZM17.75 4.5H6.25C5.78587 4.5 5.34075 4.68437 5.01256 5.01256C4.68437 5.34075 4.5 5.78587 4.5 6.25V17.75C4.5 18.716 5.284 19.5 6.25 19.5H13V16.25C12.9999 15.4199 13.3176 14.6212 13.8877 14.0178C14.4578 13.4144 15.2372 13.052 16.066 13.005L16.25 13H19.5V6.25C19.5 5.78587 19.3156 5.34075 18.9874 5.01256C18.6592 4.68437 18.2141 4.5 17.75 4.5ZM18.439 14.5H16.25C15.8107 14.5 15.3874 14.6653 15.0643 14.963C14.7412 15.2608 14.5419 15.6691 14.506 16.107L14.5 16.25V18.439L18.439 14.5Z" fill="white"/>
</g>
</svg>
