<svg width="24" height="24" viewBox="0 0 24 24" fill="none" xmlns="http://www.w3.org/2000/svg">
<g id="fluent:history-24-filled">
<path id="Vector" d="M12 4.99996C13.4218 5.00017 14.8099 5.43336 15.9795 6.24189C17.1491 7.05043 18.0447 8.19595 18.5472 9.52605C19.0497 10.8561 19.1353 12.3077 18.7925 13.6876C18.4497 15.0675 17.6948 16.3103 16.6283 17.2506C15.5617 18.1909 14.2342 18.7842 12.8222 18.9514C11.4102 19.1186 9.98078 18.8519 8.72413 18.1867C7.46747 17.5215 6.44318 16.4894 5.78756 15.2277C5.13194 13.966 4.87607 12.5346 5.054 11.124C5.07366 10.9921 5.06676 10.8576 5.0337 10.7285C5.00064 10.5994 4.94209 10.4781 4.8615 10.3719C4.7809 10.2657 4.67989 10.1767 4.56439 10.1101C4.4489 10.0436 4.32125 10.0007 4.18897 9.9842C4.05669 9.96767 3.92243 9.97775 3.7941 10.0139C3.66577 10.05 3.54595 10.1114 3.4417 10.1944C3.33744 10.2775 3.25085 10.3806 3.18702 10.4977C3.12319 10.6147 3.0834 10.7433 3.07 10.876C3.02333 11.2453 3 11.62 3 12C3.00015 14.0064 3.67074 15.9552 4.90524 17.5368C6.13974 19.1185 7.86735 20.2423 9.81364 20.7297C11.7599 21.2171 13.8133 21.0402 15.6475 20.227C17.4817 19.4139 18.9917 18.0111 19.9374 16.2416C20.8832 14.4721 21.2105 12.4373 20.8675 10.4605C20.5244 8.48362 19.5306 6.67808 18.044 5.33068C16.5573 3.98328 14.6631 3.17128 12.6621 3.02367C10.6612 2.87605 8.66827 3.4013 7 4.51596V3.99996C7 3.73475 6.89464 3.48039 6.70711 3.29285C6.51957 3.10532 6.26522 2.99996 6 2.99996C5.73478 2.99996 5.48043 3.10532 5.29289 3.29285C5.10536 3.48039 5 3.73475 5 3.99996V6.99996C5 7.26518 5.10536 7.51953 5.29289 7.70707C5.48043 7.8946 5.73478 7.99996 6 7.99996H9C9.26522 7.99996 9.51957 7.8946 9.70711 7.70707C9.89464 7.51953 10 7.26518 10 6.99996C10 6.73474 9.89464 6.48039 9.70711 6.29286C9.51957 6.10532 9.26522 5.99996 9 5.99996H8.392C9.48096 5.34381 10.7286 4.998 12 4.99996ZM13 7.99996C13 7.73474 12.8946 7.48039 12.7071 7.29285C12.5196 7.10532 12.2652 6.99996 12 6.99996C11.7348 6.99996 11.4804 7.10532 11.2929 7.29285C11.1054 7.48039 11 7.73474 11 7.99996V12C11 12.2652 11.1054 12.5195 11.2929 12.7071C11.4804 12.8946 11.7348 13 12 13H14.5C14.7652 13 15.0196 12.8946 15.2071 12.7071C15.3946 12.5195 15.5 12.2652 15.5 12C15.5 11.7347 15.3946 11.4804 15.2071 11.2929C15.0196 11.1053 14.7652 11 14.5 11H13V7.99996Z" fill="#C6C6C6"/>
</g>
</svg>
