<svg width="24" height="24" viewBox="0 0 24 24" fill="none" xmlns="http://www.w3.org/2000/svg">
<path d="M8 4V2M16 4V2M12 22C7.993 22 5.99 22 4.745 20.682C3.5 19.364 3.5 17.242 3.5 13C3.5 8.758 3.5 6.636 4.745 5.318C5.99 4 7.993 4 12 4C16.007 4 18.01 4 19.255 5.318C20.5 6.636 20.5 8.758 20.5 13C20.5 17.242 20.5 19.364 19.255 20.682C18.01 22 16.007 22 12 22Z" stroke="white" stroke-width="1.5" stroke-linecap="round" stroke-linejoin="round"/>
<path d="M14.0179 9.49316C14.0179 10.0236 13.8072 10.5323 13.4322 10.9074C13.0571 11.2824 12.5484 11.4932 12.0179 11.4932C11.4875 11.4932 10.9788 11.2824 10.6037 10.9074C10.2287 10.5323 10.0179 10.0236 10.0179 9.49316C10.0179 8.96273 10.2287 8.45402 10.6037 8.07895C10.9788 7.70388 11.4875 7.49316 12.0179 7.49316C12.5484 7.49316 13.0571 7.70388 13.4322 8.07895C13.8072 8.45402 14.0179 8.96273 14.0179 9.49316ZM8.06295 16.7162C9.12095 15.0862 10.8019 14.4762 12.0179 14.4772C13.2339 14.4782 14.8659 15.0872 15.9239 16.7172C15.9919 16.8222 16.0109 16.9512 15.9489 17.0612C15.7019 17.5002 14.9329 18.3712 14.3789 18.4302C13.7409 18.4972 12.0719 18.5072 12.0189 18.5072C11.9659 18.5072 10.2469 18.4972 9.60895 18.4302C9.05295 18.3702 8.28495 17.5002 8.03695 17.0602C7.97595 16.9512 7.99495 16.8222 8.06295 16.7162Z" stroke="white" stroke-width="1.5" stroke-linecap="round" stroke-linejoin="round"/>
</svg>
