<svg width="32" height="32" viewBox="0 0 32 32" fill="none" xmlns="http://www.w3.org/2000/svg">
<circle cx="16" cy="16" r="15.5" fill="#E7E7E7" stroke="white"/>
<path d="M10.6666 10.6666H12.6666L13.9999 9.33331H17.9999L19.3333 10.6666H21.3333C21.6869 10.6666 22.026 10.8071 22.2761 11.0572C22.5261 11.3072 22.6666 11.6464 22.6666 12V20C22.6666 20.3536 22.5261 20.6927 22.2761 20.9428C22.026 21.1928 21.6869 21.3333 21.3333 21.3333H10.6666C10.313 21.3333 9.97382 21.1928 9.72378 20.9428C9.47373 20.6927 9.33325 20.3536 9.33325 20V12C9.33325 11.6464 9.47373 11.3072 9.72378 11.0572C9.97382 10.8071 10.313 10.6666 10.6666 10.6666ZM15.9999 12.6666C15.1159 12.6666 14.268 13.0178 13.6429 13.643C13.0178 14.2681 12.6666 15.1159 12.6666 16C12.6666 16.884 13.0178 17.7319 13.6429 18.357C14.268 18.9821 15.1159 19.3333 15.9999 19.3333C16.884 19.3333 17.7318 18.9821 18.3569 18.357C18.9821 17.7319 19.3333 16.884 19.3333 16C19.3333 15.1159 18.9821 14.2681 18.3569 13.643C17.7318 13.0178 16.884 12.6666 15.9999 12.6666ZM15.9999 14C16.5304 14 17.0391 14.2107 17.4141 14.5858C17.7892 14.9608 17.9999 15.4695 17.9999 16C17.9999 16.5304 17.7892 17.0391 17.4141 17.4142C17.0391 17.7893 16.5304 18 15.9999 18C15.4695 18 14.9608 17.7893 14.5857 17.4142C14.2106 17.0391 13.9999 16.5304 13.9999 16C13.9999 15.4695 14.2106 14.9608 14.5857 14.5858C14.9608 14.2107 15.4695 14 15.9999 14Z" fill="#464661"/>
</svg>
