<svg width="24" height="24" viewBox="0 0 24 24" fill="none" xmlns="http://www.w3.org/2000/svg">
<g id="iconoir:timer-off">
<path id="Vector" d="M8.99994 2H14.9999M4.99994 7L18.9999 21.5M11.9999 10V14M6.18994 8.5C4.77944 9.99151 3.99627 11.9682 4.00248 14.021C4.00868 16.0738 4.80379 18.0457 6.22329 19.5287C7.64278 21.0116 9.57803 21.8921 11.6286 21.9881C13.6792 22.084 15.6882 21.388 17.2399 20.044M19.4199 17C20.003 15.561 20.1548 13.9834 19.8566 12.4596C19.5585 10.9358 18.8234 9.53173 17.741 8.41856C16.6586 7.30539 15.2756 6.53127 13.7608 6.19059C12.246 5.84992 10.6647 5.95743 9.20994 6.5" stroke="white" stroke-width="1.5" stroke-linecap="round" stroke-linejoin="round"/>
</g>
</svg>
