<svg width="24" height="24" viewBox="0 0 24 24" fill="none" xmlns="http://www.w3.org/2000/svg">
<path d="M20 11.5C20 9.81886 19.5015 8.17547 18.5675 6.77766C17.6335 5.37984 16.306 4.29037 14.7528 3.64703C13.1996 3.00368 11.4906 2.83535 9.84174 3.16333C8.1929 3.4913 6.67834 4.30085 5.4896 5.4896C4.30085 6.67834 3.4913 8.1929 3.16333 9.84174C2.83535 11.4906 3.00368 13.1996 3.64703 14.7528C4.29037 16.306 5.37984 17.6335 6.77766 18.5675C8.17547 19.5015 9.81886 20 11.5 20M11.5 6.26923V11.5H6.26923M16.0769 13.4615V16.0769M20 16.0769C20 17.1174 19.5867 18.1152 18.851 18.851C18.1152 19.5867 17.1174 20 16.0769 20C15.0365 20 14.0386 19.5867 13.3029 18.851C12.5672 18.1152 12.1538 17.1174 12.1538 16.0769C12.1538 15.0365 12.5672 14.0386 13.3029 13.3029C14.0386 12.5672 15.0365 12.1538 16.0769 12.1538C17.1174 12.1538 18.1152 12.5672 18.851 13.3029C19.5867 14.0386 20 15.0365 20 16.0769ZM16.0769 17.7115H16.0835V17.7181H16.0769V17.7115ZM16.4038 17.7115C16.4038 17.7982 16.3694 17.8814 16.3081 17.9427C16.2468 18.004 16.1636 18.0385 16.0769 18.0385C15.9902 18.0385 15.9071 18.004 15.8458 17.9427C15.7844 17.8814 15.75 17.7982 15.75 17.7115C15.75 17.6248 15.7844 17.5417 15.8458 17.4804C15.9071 17.4191 15.9902 17.3846 16.0769 17.3846C16.1636 17.3846 16.2468 17.4191 16.3081 17.4804C16.3694 17.5417 16.4038 17.6248 16.4038 17.7115Z" stroke="white" stroke-width="1.2"/>
</svg>
