<svg width="24" height="24" viewBox="0 0 24 24" fill="none" xmlns="http://www.w3.org/2000/svg">
<g id="material-symbols:edit-note-outline-rounded">
<path id="Vector" d="M5 14C4.71667 14 4.47934 13.904 4.288 13.712C4.09667 13.52 4.00067 13.2827 4 13C3.99934 12.7173 4.09534 12.48 4.288 12.288C4.48067 12.096 4.718 12 5 12H10C10.2833 12 10.521 12.096 10.713 12.288C10.905 12.48 11.0007 12.7173 11 13C10.9993 13.2827 10.9033 13.5203 10.712 13.713C10.5207 13.9057 10.2833 14.0013 10 14H5ZM5 10C4.71667 10 4.47934 9.904 4.288 9.712C4.09667 9.52 4.00067 9.28267 4 9C3.99934 8.71733 4.09534 8.48 4.288 8.288C4.48067 8.096 4.718 8 5 8H14C14.2833 8 14.521 8.096 14.713 8.288C14.905 8.48 15.0007 8.71733 15 9C14.9993 9.28267 14.9033 9.52033 14.712 9.713C14.5207 9.90567 14.2833 10.0013 14 10H5ZM5 6C4.71667 6 4.47934 5.904 4.288 5.712C4.09667 5.52 4.00067 5.28267 4 5C3.99934 4.71733 4.09534 4.48 4.288 4.288C4.48067 4.096 4.718 4 5 4H14C14.2833 4 14.521 4.096 14.713 4.288C14.905 4.48 15.0007 4.71733 15 5C14.9993 5.28267 14.9033 5.52033 14.712 5.713C14.5207 5.90567 14.2833 6.00133 14 6H5ZM13 19V17.35C13 17.2167 13.025 17.0877 13.075 16.963C13.125 16.8383 13.2 16.7257 13.3 16.625L18.525 11.425C18.675 11.275 18.8417 11.1667 19.025 11.1C19.2083 11.0333 19.3917 11 19.575 11C19.775 11 19.9667 11.0377 20.15 11.113C20.3333 11.1883 20.5 11.3007 20.65 11.45L21.575 12.375C21.7083 12.525 21.8127 12.6917 21.888 12.875C21.9633 13.0583 22.0007 13.2417 22 13.425C21.9993 13.6083 21.966 13.796 21.9 13.988C21.834 14.18 21.7257 14.3507 21.575 14.5L16.375 19.7C16.275 19.8 16.1627 19.875 16.038 19.925C15.9133 19.975 15.784 20 15.65 20H14C13.7167 20 13.4793 19.9043 13.288 19.713C13.0967 19.5217 13.0007 19.284 13 19ZM14.5 18.5H15.45L18.475 15.45L18.025 14.975L17.55 14.525L14.5 17.55V18.5ZM18.025 14.975L17.55 14.525L18.475 15.45L18.025 14.975Z" fill="#C6C6C6"/>
</g>
</svg>
