<svg width="94" height="94" viewBox="0 0 94 94" fill="none" xmlns="http://www.w3.org/2000/svg">
<g id="si:user-fill">
<path id="Vector" d="M24.4791 27.4167C24.4791 21.4438 26.8518 15.7155 31.0753 11.4921C35.2987 7.2686 41.027 4.89587 46.9999 4.89587C52.9728 4.89587 58.701 7.2686 62.9245 11.4921C67.148 15.7155 69.5207 21.4438 69.5207 27.4167C69.5207 33.3896 67.148 39.1179 62.9245 43.3413C58.701 47.5648 52.9728 49.9375 46.9999 49.9375C41.027 49.9375 35.2987 47.5648 31.0753 43.3413C26.8518 39.1179 24.4791 33.3896 24.4791 27.4167ZM46.2087 55.8556C46.3773 55.8302 46.5474 55.8158 46.7179 55.8125H47.2819C47.4542 55.8125 47.6239 55.8269 47.7911 55.8556L76.3631 60.8807L76.512 60.912C81.776 62.1262 87.4316 65.4671 88.5322 71.957L88.5479 72.0706L88.9944 75.5055V75.5134C90.0284 83.382 83.7891 89.1042 76.4219 89.1042C76.2593 89.1012 76.0971 89.0882 75.9362 89.065H17.5779C10.2106 89.065 3.96748 83.3389 5.00539 75.4664L5.45189 72.0628L5.47148 71.9453C6.56814 65.5729 12.2708 62.044 17.5231 60.9042L17.6366 60.8807L46.2087 55.8556Z" fill="white"/>
</g>
</svg>
