<svg width="24" height="24" viewBox="0 0 24 24" fill="none" xmlns="http://www.w3.org/2000/svg">
<g id="tabler:caret-down-filled">
<path id="Vector" d="M9 7.78707C9 7.11763 9.73951 6.76798 10.2173 7.17184L10.2803 7.23156L14.7804 11.9459C14.9095 12.0812 14.9871 12.2613 14.9985 12.4522C15.01 12.6432 14.9545 12.8319 14.8426 12.9831L14.7804 13.057L10.2803 17.7714L10.2098 17.8366L10.152 17.879L10.08 17.9214L10.053 17.9348L10.0028 17.956L9.92177 17.9811L9.88202 17.989L9.83701 17.9969L9.79426 18H9.70576L9.66226 17.9961L9.61726 17.989L9.57826 17.9811L9.49726 17.956L9.44701 17.9348L9.34801 17.8798L9.2805 17.8287L9.21975 17.7714L9.1575 17.6975L9.117 17.637L9.0765 17.5616L9.06375 17.5333L9.0435 17.4806L9.0195 17.3958L9.012 17.3541L9.0045 17.307L9.0015 17.2622L9 7.78707Z" fill="#464661"/>
</g>
</svg>
