<svg width="24" height="24" viewBox="0 0 24 24" fill="none" xmlns="http://www.w3.org/2000/svg">
<g id="tabler:caret-down-filled">
<path id="Vector" d="M16.2129 9C16.8824 9 17.232 9.73951 16.8282 10.2173L16.7684 10.2803L12.0541 14.7804C11.9188 14.9095 11.7387 14.9871 11.5478 14.9985C11.3568 15.01 11.1681 14.9545 11.0169 14.8426L10.943 14.7804L6.22865 10.2803L6.16343 10.2098L6.121 10.152L6.07857 10.08L6.06522 10.053L6.044 10.0028L6.01886 9.92177L6.011 9.88202L6.00314 9.83701L6 9.79426V9.70576L6.00393 9.66226L6.011 9.61726L6.01886 9.57826L6.044 9.49726L6.06522 9.44701L6.12022 9.34801L6.17129 9.2805L6.22865 9.21975L6.30251 9.1575L6.36301 9.117L6.43844 9.0765L6.46672 9.06375L6.51937 9.0435L6.60423 9.0195L6.64587 9.012L6.69301 9.0045L6.7378 9.0015L16.2129 9Z" fill="#464661"/>
</g>
</svg>
