<svg width="8" height="10" viewBox="0 0 8 10" fill="none" xmlns="http://www.w3.org/2000/svg">
<path d="M3.59662 0.162663C3.70376 0.0585099 3.84906 0 4.00056 0C4.15206 0 4.29736 0.0585099 4.4045 0.162663L7.8326 3.49608C7.84735 3.51051 7.86127 3.52572 7.8743 3.54163L7.87773 3.54608L7.88687 3.5583L7.91087 3.59108L7.91601 3.59941L7.92001 3.60497L7.92801 3.61997L7.94172 3.64441L7.94572 3.65386L7.95144 3.66497L7.95829 3.68275L7.96686 3.70164L7.97086 3.71552L7.97543 3.72664L7.97829 3.74108L7.98515 3.76164L7.98743 3.77719L7.99086 3.79108L7.99257 3.80553L7.996 3.82386L7.99714 3.84053L7.99886 3.85608V3.87053L8 3.88886L7.99886 3.9072V3.92164L7.99714 3.93609L7.996 3.95386L7.99314 3.96998L7.99086 3.98664L7.98743 3.99998L7.98515 4.01664L7.97829 4.03609L7.97543 4.05109L7.97086 4.06164L7.96686 4.07609L7.95829 4.09442L7.95144 4.11331L7.94572 4.12331L7.94172 4.13331L7.92801 4.1572L7.92001 4.17276L7.91601 4.17776L7.91087 4.18665L7.88687 4.21887L7.88002 4.22943L7.87773 4.23109L7.8743 4.23665C7.84809 4.26823 7.81839 4.29692 7.78574 4.32221L7.7806 4.32554L7.76803 4.33443L7.73489 4.35776L7.72575 4.36276L7.72061 4.36665L7.70461 4.37443L7.68005 4.38776L7.66976 4.39165L7.65948 4.39721L7.64005 4.40387L7.6212 4.41221L7.60748 4.41554L7.59549 4.42054L7.58006 4.42332L7.55949 4.42999L7.54292 4.43221L7.52921 4.43554L7.51321 4.43721L7.4955 4.44054L7.47722 4.44165L7.46236 4.44332H7.44751L7.42865 4.44443H0.572468C0.0639682 4.44443 -0.191425 3.84608 0.168525 3.49608L3.59662 0.162663ZM7.42865 5.55557L7.44751 5.55668H7.46236L7.47722 5.55835L7.4955 5.55946L7.51321 5.56279L7.52921 5.56446L7.54292 5.56779L7.56006 5.57001L7.58006 5.57668L7.59549 5.57946L7.60634 5.5839L7.6212 5.58779L7.64005 5.59613L7.65948 5.60279L7.66976 5.60835L7.68005 5.61224L7.70461 5.62557L7.72061 5.63335L7.72575 5.63724L7.73489 5.64224L7.76403 5.66279L7.77889 5.67224L7.7806 5.67446L7.78632 5.67779C7.81879 5.70329 7.8483 5.73216 7.8743 5.76391L7.87773 5.76891L7.8863 5.78002L7.91087 5.81335L7.91601 5.82224L7.92001 5.82724L7.92801 5.8428L7.94172 5.86669L7.94458 5.87391L7.95144 5.88669L7.95829 5.90558L7.96686 5.92391L7.97086 5.93836L7.97543 5.94947L7.97829 5.96391L7.98515 5.98391L7.98743 6.00002L7.99086 6.01336L7.99257 6.02891L7.996 6.04614L7.99714 6.06391L7.99886 6.07836V6.0928L8 6.11114L7.99886 6.12947V6.14392L7.99714 6.15836L7.996 6.17614L7.99257 6.19336L7.99086 6.20892L7.98743 6.22225L7.98515 6.23892L7.97829 6.25836L7.97543 6.27336L7.97086 6.28392L7.96686 6.29836L7.95829 6.3167L7.95144 6.33559L7.94572 6.34559L7.94172 6.35559L7.92801 6.37948L7.92001 6.39503L7.91601 6.40003L7.91087 6.40892L7.88687 6.44115L7.88002 6.4517L7.87773 6.45337L7.8743 6.45892L7.8326 6.50392L4.4045 9.83734C4.29736 9.94149 4.15206 10 4.00056 10C3.84906 10 3.70376 9.94149 3.59662 9.83734L0.168525 6.50392C-0.191425 6.15392 0.0633968 5.55557 0.572468 5.55557H7.42865Z" fill="#1B4DEA"/>
</svg>
