<svg width="214" height="210" viewBox="0 0 214 210" fill="none" xmlns="http://www.w3.org/2000/svg">
<g id="Frame" clip-path="url(#clip0_19_6660)">
<g id="Group">
<g id="Illustration">
<g id="Cross-platform software">
<path id="Vector" d="M105.104 210C163.151 210 210.208 162.99 210.208 105C210.208 47.0101 163.151 0 105.104 0C47.0567 0 0 47.0101 0 105C0 162.99 47.0567 210 105.104 210Z" fill="#F4F7FA"/>
<g id="Group_2">
<path id="Vector_2" d="M214 179.042L2.75818 177.305V182.445C2.75818 183.84 3.67934 185.026 4.92707 185.237L64.6599 195.358C65.3686 195.478 66.0878 195.51 66.8033 195.453L211.704 183.914C212.998 183.811 214 182.621 214 181.188V179.043V179.042Z" fill="url(#paint0_linear_19_6660)"/>
<g id="Group_3">
<path id="Vector_3" d="M137.341 170.711L4.94211 180.113C2.57277 180.281 0.646362 178.494 0.646362 176.12V81.0098C0.646362 78.636 2.57277 76.7115 4.94211 76.7115H137.341C139.293 76.7115 140.871 78.4515 140.871 80.5973V166.575C140.871 168.721 139.293 170.573 137.341 170.711Z" fill="url(#paint1_linear_19_6660)"/>
<path id="Vector_4" d="M139.452 170.711L7.0532 180.113C4.68385 180.281 2.75745 178.494 2.75745 176.119V81.0097C2.75745 78.6359 4.68385 76.7114 7.0532 76.7114H139.452C141.404 76.7114 142.982 78.4514 142.982 80.5972V166.575C142.982 168.721 141.404 170.572 139.452 170.711Z" fill="url(#paint2_linear_19_6660)"/>
<path id="Vector_5" d="M138.24 85.4167V161.26C138.24 163.024 136.938 164.541 135.327 164.65L110.657 166.282L21.3781 172.196L12.011 172.817C10.0846 172.943 8.51709 171.475 8.51709 169.538V86.2694C8.51709 84.3322 10.0846 82.7534 12.011 82.7459L58.7433 82.5524L74.5847 82.4857L87.2032 82.4339L98.2999 82.3874L135.327 82.2329C136.938 82.2277 138.241 83.6519 138.241 85.4167H138.24Z" fill="url(#paint3_linear_19_6660)"/>
<g id="Group_4" style="mix-blend-mode:multiply" opacity="0.3">
<path id="Vector_6" d="M125.927 135.186C128.121 134.815 129.74 132.729 129.544 130.524L128.876 123.008C128.68 120.803 126.744 119.309 124.55 119.675L120.316 120.376C119.403 116.958 118.14 113.728 116.563 110.711L120.167 107.888C121.972 106.474 122.408 103.924 121.139 102.19L116.813 96.2789C115.542 94.5427 113.043 94.2779 111.233 95.6917L107.438 98.6512C104.994 96.3404 102.294 94.3087 99.3908 92.5829L101.399 88.0912C102.335 85.9972 101.461 83.6482 99.4448 82.8442L98.3 82.3882L87.2032 82.4347L87.2002 82.4369L85.1349 87.0397C81.8399 86.3467 78.4135 85.9859 74.8963 85.9964L74.584 82.4857L58.7426 82.5524C58.6908 82.8772 58.678 83.2094 58.7088 83.5439L59.1472 88.4842C55.7028 89.5762 52.4026 91.0057 49.2825 92.7239L46.4311 88.8682C45.1294 87.1087 42.5686 86.8387 40.7127 88.2652L34.3675 93.1387C32.5034 94.5682 32.0492 97.1594 33.357 98.9212L36.1572 102.694C33.5739 105.324 31.2481 108.199 29.2166 111.264L24.8878 109.579C22.8173 108.773 20.3548 109.845 19.3886 111.975L16.0906 119.241C15.1214 121.376 16.0185 123.757 18.0966 124.558L22.2325 126.157C21.1882 129.658 20.4945 133.274 20.1904 136.955L15.7971 137.682C13.5126 138.061 11.8211 140.193 12.0223 142.444L12.7033 150.123C12.9045 152.374 14.918 153.886 17.2025 153.502L21.3511 152.804C22.1994 156.387 23.4269 159.779 24.9944 162.94L21.7302 165.487C19.8556 166.948 19.3991 169.555 20.7144 171.309L21.3796 172.198L110.659 166.284C111.811 164.767 112.886 163.193 113.879 161.57L117.198 162.853C119.204 163.625 121.58 162.549 122.511 160.444L125.677 153.281C126.605 151.182 125.737 148.849 123.736 148.07L120.247 146.71C121.178 143.184 121.75 139.55 121.931 135.859L125.927 135.187L125.927 135.186ZM74.1696 167.599C57.2561 170.523 42.2525 159.215 40.7518 142.326C39.251 125.439 51.8387 109.519 68.768 106.78C85.5966 104.06 100.368 115.409 101.85 132.113C103.333 148.814 90.9825 164.697 74.1696 167.599Z" fill="url(#paint4_linear_19_6660)"/>
</g>
<path id="Vector_7" d="M77.9293 79.3132C77.9293 80.1967 77.2476 80.9152 76.406 80.9182C75.5637 80.9205 74.8798 80.205 74.8798 79.3192C74.8798 78.4335 75.5637 77.715 76.406 77.7142C77.2476 77.7142 77.9293 78.4297 77.9293 79.3132Z" fill="white"/>
<g id="Vector_8" style="mix-blend-mode:soft-light" opacity="0.48">
<path d="M107.553 144.625C97.3458 139.107 89.3203 146.099 81.5757 139.2C76.8798 135.017 79.1853 131.898 73.4076 125.647C67.0083 118.724 62.8416 121.051 56.4108 114.82C48.2787 106.942 52.3462 100.813 45.3411 95.1562C36.8434 88.2937 27.6791 94.6454 19.5898 88.0642C16.1011 85.2254 14.1867 81.0989 13.1867 76.7107H5.27167C3.88504 76.7107 2.75818 77.8402 2.75818 79.2337V177.823C2.75818 179.217 3.88429 180.266 5.27167 180.167L140.207 170.542C140.869 170.495 141.456 170.107 141.833 169.543C131.956 169.182 125.888 165.854 122.008 162.415C114.42 155.686 115.736 149.05 107.553 144.625Z" fill="white"/>
</g>
</g>
<path id="Vector_9" d="M144.73 170.284L2.75818 180.181L64.6599 190.669C65.3686 190.789 66.0878 190.822 66.8033 190.765L214 179.043L146.988 170.353C146.239 170.255 145.483 170.233 144.73 170.285V170.284Z" fill="url(#paint5_linear_19_6660)"/>
<path id="Vector_10" style="mix-blend-mode:multiply" opacity="0.3" d="M23.4742 180.43L141.669 172.068L178.25 176.773L61.0729 185.713L23.4742 180.43Z" fill="url(#paint6_linear_19_6660)"/>
</g>
<g id="Group_5">
<g id="Group_6">
<path id="Vector_11" d="M172.873 16.467L68.0526 12.9023C64.5451 12.783 61.6901 15.543 61.6901 19.068V95.4923C61.6901 99.0173 64.5451 101.809 68.0526 101.728L172.873 99.3195C175.911 99.2498 178.365 96.549 178.365 93.2873V22.56C178.365 19.2983 175.912 16.5705 172.873 16.467Z" fill="url(#paint7_linear_19_6660)"/>
<g id="Vector_12" style="mix-blend-mode:soft-light" opacity="0.74">
<path d="M63.7275 93.8866V20.6971C63.7275 17.4353 66.3664 14.8771 69.6096 14.9836L171.515 18.3166C174.337 18.4088 176.616 20.9371 176.616 23.9633V91.8668C176.616 94.8931 174.337 97.3958 171.515 97.4573L69.6096 99.6661C66.3664 99.7366 63.7275 97.1491 63.7275 93.8873V93.8866Z" fill="white"/>
</g>
<path id="Vector_13" d="M172.873 16.467L68.0526 12.9023C64.5451 12.783 61.6901 15.543 61.6901 19.068V23.646L178.365 26.7968V22.56C178.365 19.2983 175.911 16.5705 172.872 16.467H172.873Z" fill="url(#paint8_linear_19_6660)"/>
<path id="Vector_14" d="M73.0038 18.7935C73.0038 19.9387 72.0804 20.8402 70.9408 20.8072C69.7989 20.7742 68.8717 19.8165 68.8717 18.6682C68.8717 17.52 69.7989 16.6185 70.9408 16.6545C72.0811 16.6905 73.0038 17.6482 73.0038 18.7935Z" fill="white"/>
<path id="Vector_15" d="M80.2079 19.0118C80.2079 20.1518 79.2935 21.0495 78.1637 21.0165C77.0323 20.9835 76.1141 20.0303 76.1141 18.8873C76.1141 17.7443 77.0323 16.8465 78.1637 16.8825C79.2935 16.9185 80.2079 17.871 80.2079 19.011V19.0118Z" fill="white"/>
<path id="Vector_16" d="M87.3452 19.2278C87.3452 20.3625 86.4391 21.2558 85.3197 21.2235C84.1988 21.1913 83.2889 20.2425 83.2889 19.1048C83.2889 17.967 84.1988 17.0738 85.3197 17.109C86.4391 17.1443 87.3452 18.093 87.3452 19.2278Z" fill="white"/>
<path id="Vector_17" d="M171.955 72.7718L69.1067 73.2571V43.0381L171.955 44.5478V72.7718Z" fill="url(#paint9_linear_19_6660)"/>
<path id="Vector_18" d="M171.955 79.899L69.1067 80.8875V77.643L171.955 76.8683V79.899Z" fill="white"/>
<path id="Vector_19" d="M171.955 87.3337L69.1067 88.848V85.6027L171.955 84.303V87.3337Z" fill="white"/>
<g id="Group_7">
<path id="Vector_20" d="M124.42 36.4905L69.1067 35.4067V38.652L124.42 39.6202V36.4905Z" fill="white"/>
<path id="Vector_21" d="M166.085 37.3065V40.3493L171.955 40.452V37.4213L166.085 37.3065Z" fill="white"/>
</g>
<g id="Group_8" style="mix-blend-mode:soft-light" opacity="0.5">
<path id="Vector_22" d="M132.077 55.6148C119.831 37.8143 98.6499 43.4318 85.2596 23.781C82.8453 20.238 81.2079 16.6343 80.084 13.3118L68.0526 12.9023C64.5451 12.783 61.6901 15.543 61.6901 19.068V95.4923C61.6901 99.0173 64.5451 101.809 68.0526 101.728L147.773 99.8963C145.387 96.4703 143.185 92.6415 141.321 88.3643C134.175 71.964 139.468 66.3578 132.077 55.614V55.6148Z" fill="white"/>
</g>
<g id="Group_9" style="mix-blend-mode:soft-light">
<path id="Vector_23" d="M83.4654 50.6213L70.9377 50.4878V46.8983L83.4654 47.0596V50.6213Z" fill="white"/>
<path id="Vector_24" d="M150.392 51.3331L91.463 50.7061V47.1624L150.392 47.9199V51.3331Z" fill="white"/>
<path id="Vector_25" d="M103.677 56.8433L91.463 56.7593V53.2156L103.677 53.3266V56.8433Z" fill="white"/>
<path id="Vector_26" d="M168.965 57.2911L111.475 56.8966V53.3971L168.965 53.9183V57.2911Z" fill="white"/>
<path id="Vector_27" d="M103.677 62.8508L91.463 62.8133V59.2695L103.677 59.334V62.8508Z" fill="white"/>
<path id="Vector_28" d="M168.965 63.0511L111.475 62.8749V59.3754L168.965 59.6791V63.0511Z" fill="white"/>
<path id="Vector_29" d="M83.4654 68.8726L70.9377 68.8816V65.2921L83.4654 65.3109V68.8726Z" fill="white"/>
<path id="Vector_30" d="M150.392 68.8246L91.463 68.8666V65.3229L150.392 65.4114V68.8246Z" fill="white"/>
</g>
</g>
<g id="Group_10">
<path id="Vector_31" d="M205.878 34.6096L138.582 33.9008C135.4 33.8671 132.809 36.5611 132.809 39.9181V146.048C132.809 149.405 135.4 151.948 138.582 151.729L205.878 147.098C208.766 146.899 211.099 144.16 211.099 140.979V40.4236C211.099 37.2428 208.767 34.6403 205.878 34.6096Z" fill="url(#paint10_linear_19_6660)"/>
<g id="Vector_32" style="mix-blend-mode:soft-light" opacity="0.74">
<path d="M134.658 144.435V41.4233C134.658 38.3168 137.052 35.82 139.995 35.847L204.587 36.4433C207.269 36.468 209.436 38.88 209.436 41.8313V139.669C209.436 142.619 207.269 145.158 204.587 145.339L139.995 149.7C137.052 149.899 134.658 147.542 134.658 144.435Z" fill="white"/>
</g>
<path id="Vector_33" d="M205.878 34.6096L138.582 33.9008C135.4 33.8671 132.809 36.5611 132.809 39.9181V44.2786L211.098 44.5546V40.4236C211.098 37.2428 208.766 34.6403 205.877 34.6096H205.878Z" fill="url(#paint11_linear_19_6660)"/>
<path id="Vector_34" d="M205.9 39.4891C205.9 40.5706 205.077 41.4428 204.06 41.4368C203.042 41.4316 202.216 40.5481 202.216 39.4636C202.216 38.3791 203.042 37.5068 204.06 37.5158C205.077 37.5241 205.9 38.4076 205.9 39.4891Z" fill="white"/>
<path id="Vector_35" d="M205.005 121.253L139.538 124.563V62.5845L205.005 62.0085V121.253Z" fill="url(#paint12_linear_19_6660)"/>
<path id="Vector_36" d="M205.005 128.202L139.538 131.833V128.741L205.005 125.247V128.202Z" fill="white"/>
<path id="Vector_37" d="M205.005 135.451L139.538 139.416V136.325L205.005 132.496V135.451Z" fill="white"/>
<g id="Group_11">
<path id="Vector_38" d="M189.819 55.119L139.538 55.3148V58.4063L189.819 58.1055V55.119Z" fill="white"/>
<path id="Vector_39" d="M199.427 55.0823V58.0485L205.005 58.0148V55.0605L199.427 55.0823Z" fill="white"/>
</g>
<g id="Group_12" opacity="0.15">
<path id="Vector_40" d="M188.195 98.0433C177.375 83.8113 163.799 83.4041 156.24 68.1753C150.767 57.1511 151.543 44.5983 153.972 34.0638L138.583 33.9018C135.4 33.8681 132.81 36.5621 132.81 39.9191V146.048C132.81 149.405 135.4 151.948 138.583 151.729L199.088 147.565C200.951 120.688 194.477 106.304 188.196 98.0425L188.195 98.0433Z" fill="white"/>
</g>
<g id="Group_13" style="mix-blend-mode:soft-light">
<path id="Vector_41" d="M150.799 68.7848L143.845 68.8778L143.857 65.7878L150.811 65.7158L150.799 68.7848Z" fill="white"/>
<path id="Vector_42" d="M188.179 68.2846L155.247 68.7256L155.258 65.6694L188.193 65.3281L188.179 68.2846Z" fill="white"/>
<path id="Vector_43" d="M162.027 73.8181L155.227 73.9448L155.238 70.8893L162.039 70.7836L162.027 73.8181Z" fill="white"/>
<path id="Vector_44" d="M198.595 73.1408L166.376 73.7378L166.388 70.7161L198.611 70.2158L198.595 73.1408Z" fill="white"/>
<path id="Vector_45" d="M162.006 79.0014L155.206 79.1626L155.218 76.1079L162.019 75.9677L162.006 79.0014Z" fill="white"/>
<path id="Vector_46" d="M198.571 78.1352L166.354 78.8979L166.367 75.8777L198.586 75.2117L198.571 78.1352Z" fill="white"/>
<path id="Vector_47" d="M150.741 84.5071L143.788 84.7073L143.8 81.6196L150.752 81.4396L150.741 84.5071Z" fill="white"/>
<path id="Vector_48" d="M188.108 83.4293L155.186 84.3789L155.198 81.3248L188.122 80.4751L188.108 83.4293Z" fill="white"/>
<path id="Vector_49" d="M161.964 89.3626L155.166 89.5936L155.178 86.5411L161.977 86.3303L161.964 89.3626Z" fill="white"/>
<path id="Vector_50" d="M198.522 88.1206L166.311 89.2149L166.324 86.1954L198.536 85.1986L198.522 88.1206Z" fill="white"/>
<path id="Vector_51" d="M161.943 94.5414L155.146 94.8076L155.158 91.7551L161.955 91.5099L161.943 94.5414Z" fill="white"/>
<path id="Vector_52" d="M198.498 93.1118L166.29 94.3718L166.303 91.3531L198.512 90.1898L198.498 93.1118Z" fill="white"/>
<path id="Vector_53" d="M161.922 99.7194L155.125 100.02L155.137 96.9684L161.934 96.6879L161.922 99.7194Z" fill="white"/>
<path id="Vector_54" d="M198.473 98.1017L166.269 99.5267L166.281 96.5087L198.487 95.1804L198.473 98.1017Z" fill="white"/>
<path id="Vector_55" d="M172.999 104.347L166.353 104.675L166.365 101.659L173.012 101.351L172.999 104.347Z" fill="white"/>
<path id="Vector_56" d="M203.471 102.842L177.25 104.137L177.263 101.153L203.486 99.9369L203.471 102.842Z" fill="white"/>
<path id="Vector_57" d="M150.643 110.683L143.694 111.062L143.705 107.978L150.654 107.62L150.643 110.683Z" fill="white"/>
<path id="Vector_58" d="M187.991 108.647L155.085 110.441L155.097 107.391L188.004 105.695L187.991 108.647Z" fill="white"/>
<path id="Vector_59" d="M161.86 115.244L155.065 115.649L155.077 112.601L161.872 112.215L161.86 115.244Z" fill="white"/>
<path id="Vector_60" d="M198.4 113.063L166.205 114.985L166.217 111.969L198.414 110.145L198.4 113.063Z" fill="white"/>
<path id="Vector_61" d="M161.839 120.416L155.045 120.857L155.057 117.809L161.851 117.389L161.839 120.416Z" fill="white"/>
<path id="Vector_62" d="M198.375 118.049L166.184 120.135L166.196 117.12L198.389 115.13L198.375 118.049Z" fill="white"/>
</g>
</g>
</g>
<g id="Group_14">
<g id="Group_15">
<path id="Vector_63" d="M179.988 202.717C177.506 202.521 174.332 201.832 171.286 199.842C167.989 197.689 163.696 193.265 164.817 190.477C165.235 189.436 166.44 188.545 167.498 188.629C169.063 188.755 169.244 190.925 171.961 193.286C172.463 193.723 175.058 195.979 176.348 195.218C176.989 194.84 177.179 193.793 177.075 192.997C176.769 190.669 173.924 190.311 171.189 187.791C168.416 185.236 166.104 180.779 167.425 177.766C168.184 176.034 170.193 174.667 171.513 175.051C172.078 175.215 172.435 175.675 174.148 179.373C175.554 182.407 175.867 183.292 176.774 183.58C177.707 183.876 179.157 183.504 179.709 182.586C181.145 180.194 174.939 176.662 174.375 169.969C174.123 166.97 174.935 162.524 177.654 161.571C179.491 160.927 182.111 161.911 183.057 163.595C183.911 165.114 182.874 166.256 183.525 169.668C183.723 170.703 184.129 172.834 184.988 172.945C185.995 173.077 187.122 170.36 187.382 169.699C189.343 164.718 187.095 162.157 188.944 159.739C190.386 157.853 193.523 157.096 196.008 158.048C198.183 158.881 199.923 161.048 200.039 163.294C200.158 165.58 198.234 167.854 194.386 172.403C192.562 174.56 191.11 176.018 191.192 178.162C191.233 179.208 191.647 180.678 192.397 180.812C194.051 181.108 194.866 174.454 198.786 173.427C200.793 172.901 203.286 173.935 204.382 175.741C205.725 177.955 204.825 181.093 203.139 182.743C200.939 184.897 198.682 183.26 194.541 185.572C192.704 186.598 189.817 188.78 190.24 190.585C190.424 191.371 191.248 192.141 192.153 192.243C194.18 192.473 194.85 189.153 198.111 187.693C200.46 186.642 203.707 186.756 204.479 188.079C205.568 189.947 201.7 194.189 199.643 196.063C197.156 198.329 191.292 202.626 179.987 202.715L179.988 202.717Z" fill="url(#paint13_linear_19_6660)"/>
<g id="Group_16" opacity="0.5">
<path id="Vector_64" d="M181.102 201.653C180.774 196.1 184.456 184.788 187.135 179.441C189.755 174.209 192.263 165.931 192.288 165.848L192.451 165.898C192.427 165.981 189.915 174.272 187.287 179.518C184.617 184.849 180.946 196.118 181.272 201.644L181.102 201.653V201.653Z" fill="white"/>
</g>
</g>
<path id="Vector_65" d="M174.14 203.441C172.272 200.85 169.531 196.175 169.04 189.92C168.838 187.343 168.442 182.309 171.525 177.967C173.062 175.802 176.32 172.602 178.521 173.525C179.938 174.119 180.817 176.379 180.418 178.098C180.015 179.83 178.548 179.991 176.952 182.932C176.362 184.02 175.687 185.297 176.205 186.019C176.639 186.621 177.828 186.731 178.72 186.37C180.562 185.623 179.986 183.331 181.978 181.688C183.394 180.52 185.755 179.97 186.774 180.928C187.658 181.759 187.504 183.7 186.723 184.995C185.471 187.067 183.226 186.46 181.763 188.725C181.114 189.73 180.653 191.249 181.22 191.849C181.867 192.533 183.773 191.941 184.994 191.185C186.605 190.187 186.665 189.125 187.727 188.992C188.911 188.843 190.391 189.97 190.623 191.216C190.948 192.962 188.804 194.845 187.106 195.663C184.933 196.71 183.318 196.096 182.256 197.526C181.867 198.051 181.51 198.908 181.829 199.428C182.285 200.17 183.932 199.925 185.026 199.762C187.688 199.366 188.421 198.402 189.374 198.871C190.34 199.345 190.838 200.947 190.421 202.072C190.189 202.696 189.491 203.664 186.036 204.27C183.618 204.694 179.555 204.992 174.14 203.443V203.441Z" fill="url(#paint14_linear_19_6660)"/>
</g>
<g id="Group_17">
<path id="Vector_66" d="M36.3638 133.1C36.3638 133.1 2.43622 83.9835 35.58 44.9505L27.0899 43.428L53.4109 35.6475L45.5364 56.76L42.1505 50.1375C42.1505 50.1375 17.2701 74.3302 36.3645 133.1H36.3638Z" fill="url(#paint15_linear_19_6660)"/>
<path id="Vector_67" d="M63.6413 156.375C63.6413 156.375 115.791 174.075 142.104 134.88L145.593 142.02L145.875 116.737L129.112 129.03L135.844 130.363C135.844 130.363 120.627 158.5 63.6405 156.374L63.6413 156.375Z" fill="url(#paint16_linear_19_6660)"/>
<path id="Vector_68" d="M22.1012 134.548L22.5193 139.256C22.6417 140.638 23.8774 141.565 25.2783 141.33L27.8233 140.901C28.3421 143.099 29.0966 145.179 30.0576 147.118L28.0553 148.68C26.9052 149.576 26.6259 151.175 27.4315 152.251L30.1754 155.911C30.9795 156.985 32.5613 157.126 33.7069 156.228L35.6003 154.744C37.1799 156.284 38.9366 157.633 40.836 158.764L39.8938 160.864C39.3052 162.176 39.8525 163.627 41.116 164.103L45.4163 165.723C46.676 166.198 48.1715 165.52 48.7571 164.209L49.6587 162.192C51.8441 162.649 54.1196 162.863 56.4529 162.813L56.6384 164.899C56.76 166.267 57.9732 167.179 59.347 166.934L64.0227 166.103C65.392 165.86 66.4025 164.557 66.2817 163.192L66.097 161.112C68.3507 160.354 70.4978 159.364 72.5113 158.173L73.7223 159.805C74.5075 160.864 76.0503 161.002 77.1674 160.114L80.9692 157.09C82.0825 156.205 82.3513 154.63 81.569 153.573L80.3168 151.879C81.9196 150.156 83.3475 148.276 84.5728 146.275L86.608 147.062C87.8377 147.537 89.2964 146.876 89.867 145.586L91.8084 141.193C92.3775 139.905 91.8452 138.475 90.6185 137.997L88.4781 137.164C89.0487 135.001 89.4 132.772 89.5111 130.508L91.9623 130.095C93.3076 129.868 94.3009 128.588 94.1808 127.236L93.7716 122.626C93.6515 121.274 92.4638 120.358 91.1177 120.581L88.5217 121.011C87.9623 118.915 87.1861 116.934 86.2191 115.085L88.4301 113.353C89.5374 112.486 89.8039 110.922 89.0262 109.859L86.3723 106.233C85.593 105.168 84.0615 105.007 82.9504 105.872L80.6231 107.687C79.1231 106.271 77.4685 105.024 75.6877 103.966L76.9197 101.21C77.494 99.9262 76.9572 98.4862 75.7215 97.9927L71.5023 96.3089C70.2628 95.8147 68.7891 96.4559 68.2118 97.7422L66.9446 100.567C64.9228 100.141 62.8215 99.9194 60.6646 99.9269L60.3966 96.9052C60.2757 95.5402 59.0663 94.608 57.6939 94.8225L53.01 95.5552C51.6332 95.7704 50.6151 97.0545 50.7368 98.4232L51.0055 101.453C48.8929 102.122 46.8689 102.999 44.9553 104.053L43.2061 101.687C42.408 100.608 40.8382 100.442 39.6986 101.317L35.8075 104.306C34.6641 105.184 34.3863 106.773 35.1881 107.853L36.9058 110.168C35.3218 111.781 33.8939 113.543 32.6491 115.423L29.9937 114.389C28.7235 113.895 27.213 114.552 26.6207 115.858L24.5982 120.316C24.0043 121.624 24.5554 123.085 25.8286 123.577L28.3654 124.557C27.725 126.704 27.3001 128.921 27.1139 131.179L24.4187 131.626C23.0178 131.857 21.9811 133.165 22.1034 134.547L22.1012 134.548ZM39.7219 134.476C38.8022 124.118 46.5213 114.354 56.9056 112.675C67.2268 111.007 76.2853 117.967 77.1952 128.211C78.1051 138.455 70.5294 148.195 60.2179 149.977C49.8441 151.768 40.6415 144.833 39.7219 134.476Z" fill="white"/>
</g>
</g>
</g>
</g>
</g>
<defs>
<linearGradient id="paint0_linear_19_6660" x1="92.0117" y1="187.057" x2="77.1845" y2="193.291" gradientUnits="userSpaceOnUse">
<stop stop-color="#40447E"/>
<stop offset="1" stop-color="#3C3B6B"/>
</linearGradient>
<linearGradient id="paint1_linear_19_6660" x1="67.9647" y1="124.958" x2="52.8177" y2="131.327" gradientUnits="userSpaceOnUse">
<stop stop-color="#40447E"/>
<stop offset="1" stop-color="#3C3B6B"/>
</linearGradient>
<linearGradient id="paint2_linear_19_6660" x1="2.7582" y1="128.418" x2="142.982" y2="128.418" gradientUnits="userSpaceOnUse">
<stop stop-color="#40447E"/>
<stop offset="1" stop-color="#3C3B6B"/>
</linearGradient>
<linearGradient id="paint3_linear_19_6660" x1="91.3931" y1="94.3522" x2="-16.2568" y2="270.511" gradientUnits="userSpaceOnUse">
<stop stop-color="#FFC444"/>
<stop offset="1" stop-color="#F36F56"/>
</linearGradient>
<linearGradient id="paint4_linear_19_6660" x1="10.6576" y1="133.525" x2="128.39" y2="119.013" gradientUnits="userSpaceOnUse">
<stop stop-color="#FFC444"/>
<stop offset="1" stop-color="#F36F56"/>
</linearGradient>
<linearGradient id="paint5_linear_19_6660" x1="2.75818" y1="180.524" x2="214" y2="180.524" gradientUnits="userSpaceOnUse">
<stop stop-color="#40447E"/>
<stop offset="1" stop-color="#3C3B6B"/>
</linearGradient>
<linearGradient id="paint6_linear_19_6660" x1="23.4742" y1="178.89" x2="178.25" y2="178.89" gradientUnits="userSpaceOnUse">
<stop stop-color="#40447E"/>
<stop offset="1" stop-color="#3C3B6B"/>
</linearGradient>
<linearGradient id="paint7_linear_19_6660" x1="153.205" y1="-10.1025" x2="57.5063" y2="181.484" gradientUnits="userSpaceOnUse">
<stop stop-color="#FF9085"/>
<stop offset="1" stop-color="#FB6FBB"/>
</linearGradient>
<linearGradient id="paint8_linear_19_6660" x1="109.987" y1="-17.4172" x2="129.752" y2="61.723" gradientUnits="userSpaceOnUse">
<stop stop-color="#AB316D"/>
<stop offset="1" stop-color="#792D3D"/>
</linearGradient>
<linearGradient id="paint9_linear_19_6660" x1="69.1067" y1="58.1476" x2="171.955" y2="58.1476" gradientUnits="userSpaceOnUse">
<stop stop-color="#FF9085"/>
<stop offset="1" stop-color="#FB6FBB"/>
</linearGradient>
<linearGradient id="paint10_linear_19_6660" x1="132.809" y1="92.8216" x2="211.099" y2="92.8216" gradientUnits="userSpaceOnUse">
<stop stop-color="#E38DDD"/>
<stop offset="1" stop-color="#9571F6"/>
</linearGradient>
<linearGradient id="paint11_linear_19_6660" x1="172.434" y1="37.7236" x2="164.67" y2="107.967" gradientUnits="userSpaceOnUse">
<stop stop-color="#40447E"/>
<stop offset="1" stop-color="#3C3B6B"/>
</linearGradient>
<linearGradient id="paint12_linear_19_6660" x1="139.538" y1="93.2858" x2="205.005" y2="93.2858" gradientUnits="userSpaceOnUse">
<stop stop-color="#E38DDD"/>
<stop offset="1" stop-color="#9571F6"/>
</linearGradient>
<linearGradient id="paint13_linear_19_6660" x1="203.544" y1="150.326" x2="182.301" y2="190.901" gradientUnits="userSpaceOnUse">
<stop stop-color="#AA80F9"/>
<stop offset="1" stop-color="#6165D7"/>
</linearGradient>
<linearGradient id="paint14_linear_19_6660" x1="188.675" y1="180.841" x2="164.284" y2="210.111" gradientUnits="userSpaceOnUse">
<stop stop-color="#E38DDD"/>
<stop offset="1" stop-color="#9571F6"/>
</linearGradient>
<linearGradient id="paint15_linear_19_6660" x1="54.5717" y1="23.9818" x2="-1.59557" y2="182.353" gradientUnits="userSpaceOnUse">
<stop stop-color="#FB6FBB"/>
<stop offset="1" stop-color="#FF9085"/>
</linearGradient>
<linearGradient id="paint16_linear_19_6660" x1="63.6413" y1="138.55" x2="145.875" y2="138.55" gradientUnits="userSpaceOnUse">
<stop stop-color="#E38DDD"/>
<stop offset="1" stop-color="#9571F6"/>
</linearGradient>
<clipPath id="clip0_19_6660">
<rect width="214" height="210" fill="white"/>
</clipPath>
</defs>
</svg>
