<svg width="861" height="738" viewBox="0 0 861 738" fill="none" xmlns="http://www.w3.org/2000/svg">
<g opacity="0.5">
<mask id="mask0_19_6527" style="mask-type:luminance" maskUnits="userSpaceOnUse" x="0" y="640" width="729" height="99">
<path d="M203.556 644.526C246.785 644.526 724.816 734.212 724.816 734.212H4.05659C4.05659 734.212 160.327 644.526 203.556 644.526ZM2.2005 730.964C0.70366 731.806 -0.0148251 733.551 0.404291 735.175C0.823407 736.859 2.32025 738.002 3.99671 738.002H724.756C726.672 738.002 728.289 736.498 728.468 734.633C728.648 732.708 727.331 730.964 725.415 730.543C705.896 726.874 246.545 640.857 203.436 640.857C160.327 640.857 8.48724 727.295 2.08075 730.964" fill="white"/>
</mask>
<g mask="url(#mask0_19_6527)">
<path d="M728.708 640.857H-0.0144043V738.002H728.708V640.857Z" fill="white"/>
</g>
<mask id="mask1_19_6527" style="mask-type:luminance" maskUnits="userSpaceOnUse" x="48" y="449" width="689" height="244">
<path d="M236.187 453.665C241.815 453.665 246.725 454.146 250.736 455.108C295.282 466.176 733.199 688.196 733.199 688.196L52.3749 499.56C52.3749 499.56 179.666 453.665 236.127 453.665M236.127 449.935C179.666 449.935 56.3266 494.147 51.0577 496.072C49.5608 496.613 48.543 498.117 48.6028 499.741C48.6627 501.365 49.8003 502.748 51.357 503.23L732.181 691.926C732.48 691.986 732.839 692.046 733.139 692.046C734.636 692.046 736.073 691.083 736.671 689.64C737.33 687.895 736.552 685.85 734.815 684.948C716.913 675.865 296.001 462.507 251.575 451.559C247.383 450.477 242.234 449.995 236.127 449.995V449.935Z" fill="white"/>
</mask>
<g mask="url(#mask1_19_6527)">
<path d="M737.392 449.935H48.6052V691.986H737.392V449.935Z" fill="white"/>
</g>
<mask id="mask2_19_6527" style="mask-type:luminance" maskUnits="userSpaceOnUse" x="143" y="280" width="620" height="371">
<path d="M147.394 294.984C147.394 294.984 220.8 284.097 279.476 284.097C305.102 284.097 327.913 286.142 340.607 292.097C382.339 311.766 758.345 646.932 758.345 646.932L147.394 294.984ZM146.856 291.255C145.299 291.495 144.041 292.698 143.742 294.262C143.443 295.826 144.161 297.39 145.598 298.232L756.549 650.18C757.148 650.541 757.747 650.661 758.405 650.661C759.543 650.661 760.74 650.12 761.459 649.097C762.537 647.533 762.357 645.368 760.86 644.105C745.533 630.45 384.015 308.398 342.283 288.728C330.428 283.134 309.293 280.307 279.536 280.307C221.219 280.307 147.634 291.194 146.856 291.255Z" fill="white"/>
</mask>
<g mask="url(#mask2_19_6527)">
<path d="M762.537 280.367H143.443V650.721H762.537V280.367Z" fill="white"/>
</g>
<mask id="mask3_19_6527" style="mask-type:luminance" maskUnits="userSpaceOnUse" x="313" y="117" width="496" height="499">
<path d="M317.017 121.266C317.017 121.266 485.801 144.364 516.516 175.162C547.231 205.959 804.748 611.924 804.748 611.924L317.017 121.266ZM313.664 119.582C312.945 121.025 313.245 122.77 314.382 123.912L802.114 614.57C802.892 615.292 803.79 615.653 804.748 615.653C805.586 615.653 806.424 615.412 807.083 614.871C808.58 613.668 808.939 611.563 807.861 609.939C797.324 593.397 549.806 203.373 519.15 172.575C487.896 141.236 324.441 118.559 317.496 117.597C317.316 117.597 317.137 117.597 317.017 117.597C315.64 117.597 314.323 118.379 313.664 119.642" fill="white"/>
</mask>
<g mask="url(#mask3_19_6527)">
<path d="M808.999 117.536H313.005V615.653H808.999V117.536Z" fill="white"/>
</g>
<mask id="mask4_19_6527" style="mask-type:luminance" maskUnits="userSpaceOnUse" x="549" y="0" width="313" height="605">
<path d="M553.158 3.7294C553.158 3.7294 714.398 74.4077 732.36 115.07C750.382 155.733 857.257 601.156 857.257 601.156L553.158 3.7294ZM550.464 1.20303C549.386 2.34591 549.147 4.09032 549.865 5.47381L853.964 602.841C854.622 604.104 855.88 604.886 857.317 604.886C857.736 604.886 858.215 604.826 858.574 604.645C860.31 603.984 861.328 602.119 860.909 600.254C856.538 582.088 753.795 154.049 735.833 113.506C717.452 72.0016 561.301 3.18804 554.655 0.300754C554.176 0.0601471 553.697 0 553.158 0C552.14 0 551.183 0.421055 550.464 1.20303Z" fill="white"/>
</mask>
<g mask="url(#mask4_19_6527)">
<path d="M861.327 0H549.146V604.886H861.327V0Z" fill="white"/>
</g>
<mask id="mask5_19_6527" style="mask-type:luminance" maskUnits="userSpaceOnUse" x="4" y="644" width="721" height="91">
<path d="M4.05701 734.212H724.817C724.817 734.212 246.785 644.526 203.556 644.526C160.327 644.526 4.05701 734.212 4.05701 734.212Z" fill="white"/>
</mask>
<g mask="url(#mask5_19_6527)">
<path d="M724.817 644.526H4.05701V734.212H724.817V644.526Z" fill="white"/>
</g>
<mask id="mask6_19_6527" style="mask-type:luminance" maskUnits="userSpaceOnUse" x="52" y="453" width="682" height="236">
<path d="M52.3745 499.56L733.138 688.196C733.138 688.196 295.222 466.176 250.736 455.168C246.724 454.206 241.815 453.724 236.187 453.724C179.726 453.724 52.4344 499.62 52.4344 499.62" fill="white"/>
</mask>
<g mask="url(#mask6_19_6527)">
<path d="M222.638 157.505L-48.65 629.572L562.998 984.346L834.285 512.28L222.638 157.505Z" fill="white"/>
</g>
<mask id="mask7_19_6527" style="mask-type:luminance" maskUnits="userSpaceOnUse" x="147" y="284" width="612" height="363">
<path d="M147.395 294.984L758.406 646.932C758.406 646.932 382.459 311.766 340.667 292.097C327.974 286.142 305.162 284.097 279.536 284.097C220.86 284.097 147.455 294.984 147.455 294.984" fill="white"/>
</mask>
<g mask="url(#mask7_19_6527)">
<path d="M452.937 -22.7827L-33.1348 465.547L452.937 953.876L939.009 465.547L452.937 -22.7827Z" fill="white"/>
</g>
<mask id="mask8_19_6527" style="mask-type:luminance" maskUnits="userSpaceOnUse" x="317" y="121" width="488" height="491">
<path d="M804.749 611.924C804.749 611.924 547.232 206.02 516.517 175.162C485.801 144.304 317.018 121.266 317.018 121.266L804.749 611.924Z" fill="white"/>
</mask>
<g mask="url(#mask8_19_6527)">
<path d="M603.189 -119.976L76.511 324.012L518.524 853.228L1045.2 409.24L603.189 -119.976Z" fill="white"/>
</g>
<mask id="mask9_19_6527" style="mask-type:luminance" maskUnits="userSpaceOnUse" x="553" y="3" width="305" height="599">
<path d="M857.318 601.156C857.318 601.156 750.443 155.733 732.421 115.07C714.459 74.4077 553.219 3.72937 553.219 3.72937L857.318 601.156Z" fill="white"/>
</mask>
<g mask="url(#mask9_19_6527)">
<path d="M803.027 -113.284L325.45 110.448L607.536 718.192L1085.11 494.46L803.027 -113.284Z" fill="white"/>
</g>
</g>
</svg>
